<?xml version="1.0" standalone="no"?>
<!DOCTYPE svg PUBLIC "-//W3C//DTD SVG 20010904//EN"
 "http://www.w3.org/TR/2001/REC-SVG-20010904/DTD/svg10.dtd">
<svg version="1.0" xmlns="http://www.w3.org/2000/svg"
 width="208.000000pt" height="156.000000pt" viewBox="0 0 208.000000 156.000000"
 preserveAspectRatio="xMidYMid meet">
<metadata>
Created by potrace 1.10, written by Peter Selinger 2001-2011
</metadata>
<g transform="translate(0.000000,156.000000) scale(0.100000,-0.100000)"
fill="#000000" stroke="none">
<path d="M557 1096 c-43 -16 -104 -56 -135 -89 -11 -12 -41 -62 -67 -112 -26
-49 -59 -111 -73 -137 -62 -119 -9 -284 116 -359 20 -12 71 -55 112 -94 46
-44 90 -77 114 -85 48 -16 141 -8 186 15 27 14 50 16 109 12 85 -6 157 6 213
34 136 69 207 261 145 391 l-22 47 -24 -18 c-22 -17 -23 -21 -12 -54 17 -50
16 -137 -2 -178 -18 -42 -84 -112 -127 -134 -47 -24 -126 -29 -184 -11 -51 15
-55 15 -126 -25 -47 -26 -123 -25 -166 1 -18 12 -48 43 -67 69 -23 31 -52 56
-82 71 -143 69 -184 211 -97 338 22 32 49 80 61 107 63 143 204 195 337 124
l58 -31 53 26 c56 27 120 34 155 15 20 -11 19 -12 -11 -43 -17 -18 -28 -36
-24 -41 5 -4 3 -5 -4 -2 -15 9 -66 -80 -87 -152 -18 -61 -21 -147 -6 -185 5
-14 20 -32 34 -41 22 -15 27 -15 55 -1 68 36 160 229 168 356 6 77 6 78 36 84
152 30 345 -33 427 -141 28 -38 34 -54 35 -96 0 -47 -2 -52 -35 -71 -29 -18
-52 -21 -139 -21 -95 0 -105 -2 -112 -20 -17 -44 -15 -45 119 -45 115 0 134 2
172 23 48 25 80 74 80 122 0 113 -152 260 -319 309 -60 18 -193 21 -256 6 -34
-8 -48 -5 -94 15 -61 29 -125 32 -178 10 -47 -20 -78 -19 -146 5 -65 23 -135
25 -190 6z m570 -90 c1 -1 0 -19 -4 -39 -6 -39 -18 -45 -46 -24 -15 10 -16 16
-5 44 10 26 16 32 33 27 11 -4 21 -7 22 -8z m-50 -152 c-6 -54 -38 -128 -80
-186 -20 -27 -22 -28 -29 -9 -22 62 53 249 101 250 11 1 13 -11 8 -55z"/>
<path d="M1291 924 c-26 -34 -26 -35 4 -68 21 -22 28 -25 45 -16 11 6 18 15
15 19 -2 5 3 8 13 7 30 -2 26 39 -6 63 -39 27 -46 26 -71 -5z"/>
</g>
</svg>
